<svg width="33" height="33" viewBox="0 0 33 33" fill="none" xmlns="http://www.w3.org/2000/svg">
<g clip-path="url(#clip0_2_225)">
<path d="M32.4752 16.763C32.4752 7.79522 25.2054 0.525391 16.2376 0.525391C7.26983 0.525391 0 7.79522 0 16.763C0 24.8676 5.93783 31.5852 13.7005 32.8034V21.4567H9.57766V16.763H13.7005V13.1857C13.7005 9.11611 16.1247 6.86821 19.8337 6.86821C21.6097 6.86821 23.4684 7.18535 23.4684 7.18535V11.1813H21.421C19.404 11.1813 18.7748 12.4331 18.7748 13.7185V16.763H23.2782L22.5582 21.4567H18.7748V32.8034C26.5374 31.5852 32.4752 24.8676 32.4752 16.763Z" fill="white"/>
</g>
<defs>
<clipPath id="clip0_2_225">
<rect width="32.4752" height="32.4752" fill="white" transform="translate(0 0.525391)"/>
</clipPath>
</defs>
</svg>
