<svg width="33" height="33" viewBox="0 0 33 33" fill="none" xmlns="http://www.w3.org/2000/svg">
<g clip-path="url(#clip0_2_224)">
<path d="M10.7242 29.956C22.976 29.956 29.6791 19.803 29.6791 11.0011C29.6791 10.7156 29.6727 10.4239 29.6601 10.1384C30.964 9.19545 32.0893 8.02741 32.9831 6.68922C31.7687 7.22953 30.4793 7.5824 29.159 7.73579C30.5491 6.90249 31.59 5.59341 32.0887 4.05124C30.7809 4.8263 29.3507 5.37304 27.8593 5.66802C26.8545 4.60033 25.5259 3.8934 24.079 3.65651C22.6321 3.41962 21.1474 3.66598 19.8546 4.35749C18.5617 5.04901 17.5327 6.14716 16.9265 7.48217C16.3204 8.81719 16.1709 10.3147 16.5012 11.7432C13.8531 11.6103 11.2624 10.9224 8.89723 9.72403C6.53201 8.52569 4.44502 6.84366 2.77157 4.78701C1.92103 6.25344 1.66076 7.9887 2.04366 9.64013C2.42656 11.2916 3.4239 12.7352 4.83298 13.6777C3.77513 13.6442 2.74045 13.3593 1.81443 12.8468V12.9293C1.81349 14.4682 2.3455 15.9599 3.32005 17.1509C4.29459 18.342 5.65152 19.1587 7.16016 19.4624C6.18023 19.7305 5.15175 19.7696 4.1543 19.5766C4.58001 20.9 5.40829 22.0576 6.52354 22.8876C7.63879 23.7177 8.98537 24.1789 10.3753 24.2068C8.01558 26.0604 5.10059 27.0659 2.09986 27.0611C1.56771 27.0603 1.03608 27.0277 0.507812 26.9634C3.55623 28.9191 7.10236 29.9579 10.7242 29.956Z" fill="white"/>
</g>
<defs>
<clipPath id="clip0_2_224">
<rect width="32.4752" height="32.4752" fill="white" transform="translate(0.507812 0.525391)"/>
</clipPath>
</defs>
</svg>
